<?xml version="1.0" encoding="UTF-8"?>
<svg id="Layer_2" data-name="Layer 2" xmlns="http://www.w3.org/2000/svg" viewBox="0 0 1080 1080">
  <defs>
    <style>
      .cls-1 {
        fill: #06ff2f;
      }
    </style>
  </defs>
  <path d="m865.72,920.31v3.37c0,25.77-21.08,46.85-46.84,46.85H239.73c-24.04,0-43.71-19.67-43.71-43.72v-5.23c0-183.49,150.12-333.61,333.6-333.61h3.77c19.02,0,37.69,1.62,55.86,4.74,10.55,23.95,25.58,45.99,44.64,65.05,40.41,40.41,94.13,62.66,151.28,62.66,4.34,0,8.67-.13,12.97-.39,42.37,55.79,67.58,125.24,67.58,200.28Z"/>
  <path d="m719.98,299.23c0,1.13-.01,2.26-.04,3.38-32.11,10.24-61.53,28.07-86.05,52.59-35.13,35.13-56.54,80.33-61.53,129.08-13.55,3.08-27.66,4.7-42.14,4.7-104.8,0-189.75-84.95-189.75-189.75s84.95-189.76,189.75-189.76,189.76,84.96,189.76,189.76Z"/>
  <path class="cls-1" d="m785.17,312.54c-107.11,0-193.94,86.83-193.94,193.94s86.83,193.94,193.94,193.94,193.94-86.83,193.94-193.94-86.83-193.94-193.94-193.94Zm-13.11,283.31l-33.37-33.38.03-.03-52.64-52.64,33.37-33.37,52.64,52.64,111.95-111.95,33.38,33.37-145.36,145.36Z"/>
</svg>