<?xml version="1.0" encoding="UTF-8"?>
<svg id="Layer_3" data-name="Layer 3" xmlns="http://www.w3.org/2000/svg" viewBox="0 0 1080 1080">
  <defs>
    <style>
      .cls-1 {
        fill: #fff;
      }
    </style>
  </defs>
  <g>
    <path d="m361.09,385.05c0,26.04,5.61,50.79,15.68,73.12-16.17,6.98-34,10.85-52.74,10.85-73.54,0-133.15-59.61-133.15-133.14s59.61-133.14,133.15-133.14c40.17,0,76.18,17.79,100.59,45.92-38.82,32.75-63.53,81.74-63.53,136.39Z"/>
    <path d="m507.37,607.79c-28.83,3.13-56.91,10.45-83.81,21.88-35.6,15.12-67.6,36.74-95.13,64.27s-49.14,59.52-64.27,95.12c-2.96,6.98-5.65,14.03-8.06,21.16H121.89c-17.8,0-32.36-14.56-32.36-32.36v-33.63c0-113.16,92.58-205.75,205.74-205.75h58.42c60.94,0,115.92,26.85,153.68,69.31Z"/>
  </g>
  <g>
    <path d="m883.78,335.89c0,73.53-59.61,133.14-133.14,133.14-17.37,0-33.96-3.33-49.17-9.37,10.5-22.71,16.36-47.99,16.36-74.61,0-55.8-25.75-105.69-65.98-138.42,24.36-26.95,59.6-43.89,98.79-43.89,73.53,0,133.14,59.61,133.14,133.15Z"/>
    <path d="m986.04,744.23v33.63c0,17.8-14.56,32.37-32.36,32.37h-129.78c-2.41-7.13-5.1-14.19-8.06-21.17-15.13-35.6-36.75-67.6-64.27-95.12-27.52-27.53-59.53-49.15-95.13-64.27-28.16-11.96-57.6-19.43-87.85-22.29,37.74-42.21,92.56-68.89,153.3-68.89h58.41c113.16,0,205.74,92.58,205.74,205.74Z"/>
  </g>
  <path class="cls-1" d="m651.85,246.63c-30.7-24.97-69.83-39.95-112.39-39.95s-83.79,15.8-114.84,41.98c-38.82,32.75-63.53,81.74-63.53,136.39,0,26.04,5.61,50.79,15.68,73.12,27.98,61.99,90.38,105.25,162.69,105.25s133.71-42.56,162.01-103.76c10.5-22.71,16.36-47.99,16.36-74.61,0-55.8-25.75-105.69-65.98-138.42Zm31.64,204.36c-.29.63-.58,1.26-.88,1.88-1.69,3.58-3.52,7.09-5.48,10.51-.28.5-.57,1-.86,1.49-.13.22-.26.44-.39.66-.29.51-.59,1.01-.9,1.51-.05.08-.1.16-.15.24-.3.51-.61,1.01-.93,1.51-.4.64-.8,1.28-1.21,1.91-.41.65-.83,1.29-1.26,1.92-.91,1.39-1.86,2.75-2.82,4.1-.31.44-.62.88-.94,1.32-3.68,5.07-7.66,9.91-11.9,14.49-.46.5-.92.99-1.39,1.48-.09.1-.18.2-.28.3-.38.41-.77.81-1.16,1.21-.5.51-.99,1.01-1.49,1.51-.9.9-1.8,1.78-2.72,2.65-.26.25-.52.5-.78.74-.66.62-1.33,1.24-2,1.85-.02.02-.03.03-.05.04-.68.62-1.37,1.24-2.07,1.85-.68.6-1.36,1.18-2.05,1.77-2.94,2.5-5.97,4.88-9.09,7.15-.65.47-1.31.95-1.97,1.41-.76.55-1.52,1.07-2.29,1.59-.77.52-1.54,1.04-2.32,1.55-.78.51-1.56,1.01-2.35,1.51-.72.45-1.44.9-2.17,1.35-.09.05-.18.11-.26.15-.78.47-1.56.94-2.35,1.39-.78.46-1.56.91-2.35,1.35-.03.01-.05.03-.08.04-.81.46-1.63.9-2.46,1.34-.63.35-1.27.68-1.92,1.02-2.03,1.05-4.09,2.06-6.17,3.02-.64.3-1.29.6-1.93.88-.59.27-1.19.53-1.78.78-.39.18-.79.35-1.18.51-1.33.57-2.67,1.11-4.01,1.63-.46.18-.91.36-1.37.53-1.61.62-3.24,1.2-4.87,1.76-.81.28-1.63.55-2.45.82-.1.03-.19.06-.29.09-.89.29-1.78.57-2.68.84-.87.27-1.74.52-2.62.77-.72.2-1.44.4-2.15.59-.52.14-1.03.28-1.55.41-1.37.36-2.74.69-4.12,1-.53.13-1.07.25-1.6.36-.09.02-.18.04-.27.06-.58.13-1.16.25-1.75.37-.13.03-.26.06-.4.08-.75.16-1.51.3-2.27.44-.82.16-1.65.31-2.48.44-3.52.61-7.08,1.09-10.68,1.45-.63.07-1.26.13-1.9.18-.77.07-1.54.13-2.31.19-.89.07-1.79.13-2.7.17-1.27.08-2.55.14-3.84.18-.78.03-1.56.05-2.35.06-.99.02-1.99.03-2.99.03s-2.02-.01-3.03-.03c-.7-.01-1.4-.03-2.09-.06-1.01-.02-2.02-.07-3.03-.12-.53-.02-1.05-.05-1.57-.09-.77-.04-1.54-.09-2.31-.15-.78-.06-1.56-.12-2.33-.2-.45-.03-.9-.08-1.35-.12-.75-.07-1.51-.15-2.25-.24-.98-.11-1.96-.23-2.93-.36-.76-.1-1.52-.2-2.28-.32-.31-.04-.63-.09-.95-.14-.87-.13-1.74-.27-2.6-.42-.96-.16-1.93-.33-2.88-.51-.79-.15-1.58-.31-2.37-.47-.5-.1-1-.21-1.49-.32-.77-.16-1.54-.33-2.3-.51-.79-.18-1.57-.36-2.35-.56-.06-.01-.12-.03-.17-.04-.69-.17-1.38-.35-2.07-.53-1.33-.35-2.65-.71-3.96-1.09-.57-.17-1.13-.34-1.7-.51-.36-.11-.72-.22-1.08-.33-1.65-.51-3.28-1.05-4.9-1.62-.82-.28-1.64-.57-2.46-.87-.09-.03-.18-.07-.27-.1-.89-.33-1.77-.66-2.65-1.01-.83-.32-1.66-.65-2.49-.99-.09-.03-.19-.07-.28-.11-.84-.35-1.68-.7-2.52-1.07-.84-.36-1.68-.73-2.51-1.1-.03-.02-.07-.03-.1-.05-.86-.39-1.72-.79-2.58-1.2-.85-.4-1.69-.81-2.53-1.22-.86-.43-1.71-.86-2.56-1.31-.73-.38-1.46-.77-2.19-1.16-.25-.13-.49-.26-.72-.39-.69-.38-1.39-.77-2.08-1.16-.72-.41-1.44-.82-2.16-1.24-.13-.07-.26-.15-.39-.23-.78-.46-1.55-.93-2.32-1.4-1.61-.99-3.19-2.01-4.76-3.05-.64-.42-1.27-.85-1.9-1.29-.26-.16-.52-.34-.77-.52-.66-.46-1.32-.93-1.97-1.4-.75-.53-1.49-1.07-2.22-1.62-3.04-2.25-5.99-4.61-8.85-7.08-.61-.52-1.21-1.05-1.8-1.57-.1-.09-.21-.19-.32-.29-.7-.62-1.39-1.25-2.08-1.89-.6-.55-1.2-1.11-1.79-1.68-.09-.08-.18-.16-.26-.25-.63-.6-1.25-1.2-1.87-1.82-2.73-2.69-5.36-5.49-7.88-8.38-.58-.66-1.15-1.32-1.71-1.99-2.46-2.9-4.81-5.89-7.05-8.97-.51-.7-1.02-1.41-1.52-2.12-.24-.33-.47-.65-.69-.99-.88-1.27-1.75-2.56-2.6-3.86-.46-.72-.93-1.44-1.39-2.17-.07-.11-.14-.22-.21-.34-.47-.76-.93-1.52-1.39-2.28-.48-.79-.94-1.58-1.4-2.37-1.44-2.48-2.8-5-4.1-7.57-.41-.8-.81-1.6-1.2-2.41-.36-.73-.7-1.46-1.04-2.19-.18-.39-.36-.78-.54-1.17-.26-.56-.51-1.12-.76-1.68-.04-.08-.07-.16-.11-.25-1.08-2.44-2.09-4.91-3.04-7.42-.24-.62-.48-1.25-.71-1.88-.93-2.52-1.79-5.06-2.58-7.64-.2-.64-.4-1.29-.59-1.94-1.19-4.02-2.22-8.11-3.09-12.26-.11-.52-.22-1.05-.32-1.58-.14-.67-.27-1.34-.39-2.01-.1-.53-.2-1.05-.29-1.58-.2-1.13-.38-2.26-.55-3.39-.11-.65-.2-1.31-.29-1.97-.28-1.98-.52-3.96-.72-5.96-.07-.67-.13-1.33-.19-2-.05-.51-.09-1.02-.13-1.54-.06-.7-.11-1.39-.15-2.09-.03-.39-.05-.79-.07-1.18-.03-.41-.05-.82-.07-1.23-.06-1.04-.1-2.08-.13-3.13-.01-.26-.02-.52-.02-.78-.02-.59-.03-1.18-.04-1.77,0-.82-.02-1.65-.02-2.47,0-1.37.02-2.73.05-4.09.02-.68.04-1.36.07-2.03.02-.68.05-1.36.09-2.03.02-.45.04-.91.07-1.36.03-.51.06-1.02.1-1.52.01-.11.01-.21.02-.31.04-.53.08-1.05.12-1.57.04-.48.08-.94.12-1.41.05-.62.11-1.25.18-1.87.27-2.67.6-5.31,1.01-7.93.09-.63.19-1.25.3-1.88.04-.3.09-.59.15-.88.09-.59.2-1.18.31-1.78.11-.6.22-1.2.34-1.8.22-1.17.46-2.33.72-3.49.13-.61.27-1.22.41-1.82.16-.72.33-1.44.51-2.16.14-.55.28-1.1.42-1.65.33-1.28.67-2.56,1.04-3.83.19-.69.39-1.38.6-2.06.2-.69.41-1.37.63-2.05.24-.78.49-1.55.74-2.31.2-.59.4-1.18.6-1.76.82-2.4,1.7-4.76,2.64-7.1.15-.39.31-.78.47-1.17.22-.56.46-1.12.7-1.68.55-1.3,1.12-2.6,1.7-3.89.6-1.32,1.22-2.64,1.86-3.94.29-.6.58-1.19.88-1.78.32-.63.64-1.26.97-1.89.29-.55.58-1.11.88-1.66.13-.27.27-.53.42-.79.52-.97,1.06-1.94,1.61-2.89.77-1.36,1.57-2.71,2.39-4.04.32-.53.65-1.06.98-1.59.37-.59.75-1.18,1.13-1.77.38-.59.76-1.17,1.15-1.76.35-.53.71-1.07,1.08-1.6.44-.66.9-1.32,1.36-1.97.38-.53.76-1.07,1.15-1.6.37-.52.74-1.03,1.12-1.54,2.12-2.86,4.33-5.64,6.64-8.35.45-.53.91-1.06,1.37-1.59.92-1.05,1.86-2.1,2.82-3.14.42-.45.83-.9,1.25-1.34,1.05-1.12,2.13-2.23,3.22-3.32.77-.77,1.55-1.53,2.34-2.28.3-.3.61-.59.92-.88.37-.35.74-.7,1.11-1.04.37-.35.75-.7,1.13-1.04.37-.34.74-.67,1.11-1,.29-.26.58-.52.87-.77.52-.46,1.05-.92,1.58-1.37.86-.74,1.74-1.47,2.62-2.19.88-.72,1.77-1.44,2.67-2.14.89-.7,1.8-1.4,2.71-2.08.06-.05.11-.09.17-.13.85-.64,1.72-1.27,2.59-1.89.68-.49,1.36-.97,2.05-1.45.31-.21.62-.43.94-.65,3.71-2.53,7.53-4.9,11.46-7.12.95-.54,1.91-1.06,2.87-1.59.09-.04.18-.09.27-.14.97-.51,1.95-1.02,2.93-1.52,2.05-1.04,4.12-2.04,6.22-2.99,2.1-.96,4.23-1.87,6.37-2.73,1.08-.43,2.15-.85,3.24-1.26,1.63-.61,3.27-1.2,4.92-1.76.55-.19,1.1-.37,1.65-.55,1.11-.37,2.22-.72,3.34-1.05.56-.17,1.12-.34,1.68-.5.56-.17,1.12-.33,1.69-.48,1.13-.31,2.26-.62,3.4-.91,1.13-.29,2.27-.56,3.42-.83,1.15-.26,2.3-.52,3.46-.75.58-.12,1.16-.24,1.74-.35.58-.12,1.16-.23,1.75-.33.58-.11,1.16-.21,1.75-.31.74-.13,1.48-.25,2.22-.37.42-.07.84-.13,1.26-.19,2.6-.39,5.22-.72,7.86-.97.49-.05.99-.1,1.48-.14,2.67-.24,5.36-.41,8.07-.51.6-.03,1.21-.05,1.82-.06,1.43-.04,2.86-.06,4.3-.06,1.19,0,2.37.01,3.55.04,1.09.02,2.17.06,3.25.11.2,0,.4.01.6.03,1.07.04,2.14.1,3.2.17,1.07.07,2.13.15,3.2.25,1.47.12,2.93.27,4.39.43.81.09,1.62.19,2.43.3.42.05.84.11,1.26.17,2,.27,3.98.59,5.96.94.92.16,1.84.33,2.75.51.45.09.89.18,1.33.27.12.02.23.04.35.07.74.15,1.47.31,2.2.47.07.02.14.03.22.05.93.21,1.85.42,2.76.64.29.07.59.15.88.22.96.24,1.92.48,2.87.74,1.07.29,2.14.59,3.2.9.04.01.07.02.11.03.86.25,1.73.51,2.59.78,1.33.42,2.66.85,3.99,1.3,1,.34,2,.69,2.99,1.05.12.05.25.09.38.14.93.34,1.86.69,2.79,1.05,1.04.41,2.08.82,3.12,1.25,1.03.43,2.06.86,3.08,1.31,1.16.51,2.32,1.03,3.48,1.57.87.41,1.73.82,2.59,1.24h0c.99.49,1.98.99,2.97,1.5,1.07.55,2.13,1.11,3.18,1.68.89.49,1.78.99,2.66,1.49,1.93,1.1,3.83,2.24,5.7,3.41,1.88,1.18,3.72,2.39,5.54,3.64,1.75,1.21,3.48,2.44,5.18,3.71.09.07.19.15.29.22,1.73,1.3,3.43,2.64,5.11,4.01.68.56,1.36,1.12,2.04,1.69.97.81,1.92,1.64,2.87,2.49.53.47,1.07.95,1.6,1.44.53.48,1.05.97,1.58,1.46,1.56,1.47,3.1,2.97,4.61,4.5.5.51,1,1.02,1.5,1.54.1.09.19.19.28.29.88.92,1.74,1.84,2.59,2.78.02.02.04.05.06.07.96,1.07,1.91,2.14,2.85,3.23.46.54.93,1.09,1.39,1.64,2.76,3.3,5.39,6.71,7.87,10.23.4.56.8,1.12,1.18,1.69.26.36.51.73.75,1.1.36.52.71,1.04,1.05,1.57,1.4,2.12,2.75,4.28,4.04,6.48.33.55.65,1.1.97,1.65,2.2,3.83,4.25,7.77,6.13,11.79.29.62.58,1.24.86,1.86.27.59.53,1.17.78,1.76.26.59.51,1.18.76,1.77.26.6.5,1.19.74,1.79.25.59.49,1.19.72,1.79.22.55.44,1.1.64,1.65,1.42,3.72,2.71,7.5,3.85,11.35.16.55.32,1.1.47,1.65.19.65.37,1.3.54,1.95.17.62.34,1.26.5,1.89.91,3.54,1.71,7.13,2.37,10.76.1.54.2,1.08.29,1.62.08.46.16.92.23,1.39.1.56.19,1.13.27,1.69.1.65.2,1.31.29,1.97.57,4.04.98,8.13,1.24,12.26.03.58.06,1.16.09,1.74.03.6.06,1.2.08,1.8.03.57.05,1.15.06,1.73.03.77.04,1.54.05,2.31s.02,1.54.02,2.31c0,2.05-.04,4.09-.12,6.12-.02.68-.05,1.36-.09,2.03-.07,1.44-.16,2.87-.27,4.3-.05.58-.1,1.16-.15,1.74-.06.67-.12,1.34-.19,2l-.18,1.68c-.16,1.48-.35,2.95-.56,4.41-.08.61-.17,1.23-.27,1.84-.09.65-.2,1.31-.31,1.96-.21,1.3-.45,2.6-.69,3.9-.62,3.23-1.34,6.43-2.16,9.6-.16.64-.33,1.27-.5,1.89-.17.63-.34,1.26-.52,1.88-.16.58-.33,1.15-.49,1.72-.04.13-.08.26-.12.39-.16.54-.33,1.09-.5,1.63-2,6.44-4.41,12.71-7.18,18.76-.01.03-.03.06-.04.09Z"/>
  <circle cx="539.46" cy="385.05" r="158.37"/>
  <path d="m819.47,905.33c0,12.08-4.94,23.06-12.91,31.03-7.96,7.96-18.94,12.9-31.03,12.9h-471.06c-24.17,0-43.94-19.77-43.94-43.93,0-76.81,31.42-146.63,82.05-197.25,50.62-50.63,120.44-82.05,197.25-82.05h.35c153.61,0,279.29,125.69,279.29,279.3Z"/>
  <path d="m819.47,905.33c0,12.08-4.94,23.06-12.91,31.03-7.96,7.96-18.94,12.9-31.03,12.9h-471.06c-24.17,0-43.94-19.77-43.94-43.93,0-76.81,31.42-146.63,82.05-197.25,50.62-50.63,120.44-82.05,197.25-82.05h.35c153.61,0,279.29,125.69,279.29,279.3Z"/>
</svg>