<?xml version="1.0" encoding="UTF-8"?>
<svg id="Layer_1" data-name="Layer 1" xmlns="http://www.w3.org/2000/svg" viewBox="0 0 1080 1080">
  <defs>
    <style>
      .cls-1 {
        fill: #ff0409;
      }
    </style>
  </defs>
  <path d="m874.85,920.31v3.37c0,25.77-21.08,46.85-46.84,46.85H248.86c-24.04,0-43.71-19.67-43.71-43.72v-5.23c0-183.49,150.12-333.61,333.6-333.61h3.77c19.02,0,37.69,1.62,55.86,4.74,10.55,23.95,25.58,45.99,44.64,65.05,40.41,40.41,94.13,62.66,151.28,62.66,4.34,0,8.67-.13,12.97-.39,42.37,55.79,67.58,125.24,67.58,200.28Z"/>
  <path d="m729.11,299.23c0,1.13-.01,2.26-.04,3.38-32.11,10.24-61.53,28.07-86.05,52.59-35.13,35.13-56.54,80.33-61.53,129.08-13.55,3.08-27.66,4.7-42.14,4.7-104.8,0-189.75-84.95-189.75-189.75s84.95-189.76,189.75-189.76,189.76,84.96,189.76,189.76Z"/>
  <path class="cls-1" d="m823.44,314.67c-129.89-18.91-239.87,91.07-220.96,220.96,12.23,84,78.67,150.44,162.67,162.67,129.89,18.91,239.87-91.07,220.96-220.96-12.23-84-78.67-150.44-162.67-162.67Zm78.72,264.81l-34.87,34.87-72.99-72.99-73,72.99-34.87-34.87,73-72.99-73-73,34.87-34.87,73,73,72.99-73,34.87,34.87-72.99,73,72.99,72.99Z"/>
</svg>