<?xml version="1.0" encoding="UTF-8"?>
<svg id="Layer_2" data-name="Layer 2" xmlns="http://www.w3.org/2000/svg" viewBox="0 0 1080 1080">
  <defs>
    <style>
      .cls-1 {
        fill: none;
      }

      .cls-2 {
        fill: #d12d2e;
      }

      .cls-3 {
        fill: #c9302f;
      }

      .cls-4 {
        fill: #252618;
      }
    </style>
  </defs>
  <g>
    <path class="cls-4" d="m792.76,601c-25.89-145.82-197.63-368.76-209.82-384.42-3.47-5.02-17.55-22.98-40-23.62-.2-.03-.41-.03-.61-.03-.76-.03-1.52-.03-2.3,0-11.75.32-28.2,7.14-40.24,25.95-.96,1.49-5.1,7.23-9.51,13.3-121.85,168.82-189.64,296.01-201.48,378.03-9.62,66.77,10.99,133.49,58.11,187.86,49.28,56.92,121.38,91.06,193.11,91.53.52.03,1.05.03,1.57.03.44,0,.9,0,1.34-.03,74.03-.41,147.48-35.57,196.64-94.24,46.65-55.66,65.55-124.68,53.18-194.37Zm-86.69,166.29c-40.97,48.87-101.85,78.17-163.14,78.58-.44.03-.9.03-1.34.03-.52,0-1.05,0-1.57-.03-59.22-.47-118.96-28.95-160.08-76.42-38.63-44.64-55.63-98.96-47.85-152.99,10.82-74.94,75.96-195.62,193.67-358.67,6.39-8.86,9.3-12.89,10.82-15.28,1.31-2.04,2.48-3.38,3.44-4.29.79-.76,1.43-1.2,1.87-1.43.29.15.64.35,1.05.64,1.31.93,2.97,2.54,4.02,3.99l1.08,1.49c1.78,2.27,177.28,228.45,201.66,365.73,10.06,56.71-5.42,113.05-43.62,158.65Z"/>
    <path class="cls-3" d="m706.07,767.29c-40.97,48.87-101.85,78.17-163.14,78.58v-61.67c2.8,1.11,5.83,1.72,9.01,1.72.47,0,.96,0,1.43-.03v.03c.06,0,.44.03,1.14.03,11.63,0,108-3.18,155.3-104.44.03-.03.06-.09.06-.12.44-.87.85-1.78,1.22-2.68.06-.12.12-.23.15-.35.99-2.62,1.52-5.45,1.52-8.43,0-13.41-10.91-24.32-24.32-24.32-9.86,0-18.34,5.86-22.16,14.32h-.03c-34.96,72.2-98.96,77.21-112.84,77.41-1.66.03-2.6-.03-2.68-.03-2.74.15-5.37.73-7.79,1.72V237.43c1.31.93,2.97,2.54,4.02,3.99l1.08,1.49c1.78,2.27,177.28,228.45,201.66,365.73,10.06,56.71-5.42,113.05-43.62,158.65Z"/>
  </g>
  <g>
    <path class="cls-1" d="m540.01,192.93c.79-.03,1.55-.03,2.3,0,.2,0,.41,0,.61.03"/>
    <path class="cls-2" d="m542.93,237.43v501.6c-1.02.38-1.98.87-2.92,1.37V238.22c.79-.76,1.43-1.2,1.87-1.43.29.15.64.35,1.05.64Z"/>
    <path class="cls-2" d="m540.02,782.77c.93.55,1.92,1.02,2.92,1.43v61.67c-.44.03-.9.03-1.34.03-.52,0-1.05,0-1.57-.03v-63.1Z"/>
    <path class="cls-1" d="m542.93,889.6c-.44.03-.9.03-1.34.03-.52,0-1.05,0-1.57-.03"/>
  </g>
  <path class="cls-4" d="m541.47,584.25h-.19c-.16,0-.29,0-.39-.01.09-.01.17-.01.26-.01.11,0,.21,0,.32.02Z"/>
  <g>
    <path class="cls-4" d="m594.81,562.74c-.11.33-.26.64-.44.94.16-.31.3-.62.44-.94Z"/>
    <path class="cls-4" d="m595.79,563.02s-.04.08-.06.12c.02-.04.04-.08.05-.12h.01Z"/>
  </g>
  <path class="cls-4" d="m551.94,737.29c-.41,0-.82,0-1.22.03.09,0,1.02.06,2.68.03-.5-.06-.96-.06-1.46-.06Z"/>
</svg>